<?xml version="1.0" encoding="UTF-8" standalone="no"?>
<!-- Created with Inkscape (http://www.inkscape.org/) -->

<svg
   xmlns:dc="http://purl.org/dc/elements/1.1/"
   xmlns:cc="http://creativecommons.org/ns#"
   xmlns:rdf="http://www.w3.org/1999/02/22-rdf-syntax-ns#"
   xmlns:svg="http://www.w3.org/2000/svg"
   xmlns="http://www.w3.org/2000/svg"
   xmlns:sodipodi="http://sodipodi.sourceforge.net/DTD/sodipodi-0.dtd"
   xmlns:inkscape="http://www.inkscape.org/namespaces/inkscape"
   version="1.1"
   id="svg815"
   xml:space="preserve"
   width="1920"
   height="1080"
   viewBox="0 0 1920 1080"
   sodipodi:docname="logo_vertical.svg"
   inkscape:version="0.92.4 (5da689c313, 2019-01-14)"><metadata
     id="metadata821"><rdf:RDF><cc:Work
         rdf:about=""><dc:format>image/svg+xml</dc:format><dc:type
           rdf:resource="http://purl.org/dc/dcmitype/StillImage" /><dc:title></dc:title></cc:Work></rdf:RDF></metadata><defs
     id="defs819"><clipPath
       clipPathUnits="userSpaceOnUse"
       id="clipPath831"><path
         d="M 0,0 H 6000 V 3406.25 H 0 Z"
         id="path829"
         inkscape:connector-curvature="0"
         style="clip-rule:evenodd" /></clipPath><clipPath
       clipPathUnits="userSpaceOnUse"
       id="clipPath845"><path
         d="M 0,0 H 6000 V 3375 H 0 Z"
         id="path843"
         inkscape:connector-curvature="0"
         style="clip-rule:evenodd" /></clipPath><clipPath
       clipPathUnits="userSpaceOnUse"
       id="clipPath857"><path
         d="M 0,0 H 6000 V 3375 H 0 Z"
         id="path855"
         inkscape:connector-curvature="0"
         style="clip-rule:evenodd" /></clipPath><clipPath
       clipPathUnits="userSpaceOnUse"
       id="clipPath869"><path
         d="M 0,0 H 6000 V 3375 H 0 Z"
         id="path867"
         inkscape:connector-curvature="0"
         style="clip-rule:evenodd" /></clipPath></defs><sodipodi:namedview
     pagecolor="#ffffff"
     bordercolor="#666666"
     borderopacity="1"
     objecttolerance="10"
     gridtolerance="10"
     guidetolerance="10"
     inkscape:pageopacity="0"
     inkscape:pageshadow="2"
     inkscape:window-width="1920"
     inkscape:window-height="1001"
     id="namedview817"
     showgrid="false"
     inkscape:pagecheckerboard="true"
     inkscape:zoom="0.52902063"
     inkscape:cx="1453.5484"
     inkscape:cy="323.26193"
     inkscape:window-x="2391"
     inkscape:window-y="-9"
     inkscape:window-maximized="1"
     inkscape:current-layer="g823" /><g
     id="g823"
     inkscape:groupmode="layer"
     inkscape:label="CHARTE GRAPHIQUE DISCOVER.IO"
     transform="matrix(0.31999998,0,0,0.31999998,0,5.3930666e-5)"><path
       style="fill:#000000;stroke-width:3.12500024"
       d="m 1806.2814,2582.633 c -103.6921,-8.1071 -196.2563,-54.517 -226.7308,-113.6783 -3.6713,-7.1272 -5.6768,-18.0137 -5.7569,-31.25 -0.1543,-25.4968 8.4713,-43.3048 26.8654,-55.4652 11.3659,-7.5141 15.9843,-8.5836 36.657,-8.4884 25.9048,0.1194 40.1721,5.7168 75.4882,29.6168 39.0808,26.4475 73.2368,37.17 121.4679,38.1318 32.6085,0.6503 48.7234,-3.1393 64.9812,-15.2808 15.0102,-11.2098 20.4766,-23.9075 18.8316,-43.7436 -2.7355,-32.987 -30.8322,-52.8249 -116.4911,-82.2494 -84.8289,-29.1394 -134.9497,-56.9429 -166.5369,-92.383 -37.9949,-42.6292 -52.8875,-103.4343 -38.6717,-157.8919 15.2301,-58.3428 67.7582,-104.4294 142.8772,-125.3562 21.8638,-6.0909 32.3007,-6.9125 87.3314,-6.8751 58.88,0.04 64.1289,0.5328 90.625,8.5074 39.4694,11.8793 74.5597,29.8515 99.9973,51.2158 25.7084,21.5917 34.3492,33.5147 41.0879,56.6948 6.2375,21.4562 2.1295,43.7723 -11.5283,62.6263 -25.7014,35.4798 -62.2473,33.5958 -123.9107,-6.3878 -46.8016,-30.347 -124.0783,-42.9954 -158.7713,-25.9871 -16.5537,8.1154 -24.8345,24.3996 -21.8021,42.8736 1.667,10.1555 5.5661,16.5425 16.6764,27.317 15.3199,14.8569 26.843,20.0911 117.6258,53.4304 122.1429,44.8561 175.5931,89.9268 190.5863,160.7078 13.4185,63.3471 -3.2228,118.9214 -49.6132,165.6851 -20.9261,21.0943 -30.5272,28.087 -55.0356,40.0828 -16.3282,7.9919 -40.2344,17.159 -53.125,20.3713 -23.4317,5.8391 -76.6107,9.8489 -103.125,7.7759 z m 662.5055,-4.4875 c -129.8706,-16.213 -237.0515,-100.1295 -277.1639,-217.0033 -39.1755,-114.1441 -17.0231,-238.801 58.516,-329.2835 39.2903,-47.0629 105.671,-88.2791 170.2049,-105.6815 28.6239,-7.7187 36.2397,-8.4406 90.625,-8.5903 51.675,-0.1422 62.7057,0.7293 85.0582,6.7209 37.6198,10.084 69.7099,24.3469 100.9906,44.887 50.3064,33.0329 64.034,52.1358 63.829,88.8224 -0.1934,34.6388 -15.7914,57.3744 -46.002,67.0531 -20.4793,6.5611 -51.07,-3.1307 -84.1583,-26.6631 -38.2714,-27.2188 -72.8499,-38.9512 -115.03,-39.0295 -39.7539,-0.074 -59.2132,4.0301 -89.3667,18.8475 -112.5379,55.301 -135.9405,216.6765 -44.4999,306.8559 37.0227,36.5121 89.5567,55.6538 140.9724,51.3659 31.6431,-2.6389 69.7268,-14.8222 88.7222,-28.3829 43.5586,-31.0961 77.3752,-45.1847 97.7271,-40.7147 17.8381,3.9179 36.3744,18.8273 45.0486,36.2341 14.9658,30.0325 9.9784,59.2863 -14.714,86.3036 -36.37,39.7946 -102.9748,73.9708 -166.0772,85.2173 -27.6039,4.9198 -77.9235,6.3816 -104.682,3.0411 z m 685.9324,-1.217 c -71.503,-11.1769 -132.36,-41.8464 -185.1355,-93.3009 -69.6485,-67.9051 -105.0084,-158.7762 -99.8547,-256.6157 4.3476,-82.5365 36.7209,-152.7275 98.842,-214.3072 48.6752,-48.2514 99.7262,-76.2429 165.6362,-90.8207 36.253,-8.0183 97.763,-8.0875 136.204,-0.1534 96.232,19.8618 181.52,84.7775 226.272,172.224 29.259,57.1722 39.769,106.1917 36.787,171.5732 -3.007,65.9233 -22.198,120.5192 -62.062,176.5624 -17.154,24.1156 -61.912,70.6144 -67.972,70.6144 -2.133,0 -59.713,-130.4049 -59.674,-135.149 0,-1.2851 4.924,-9.1634 10.918,-17.5073 30.902,-43.0137 43.378,-102.1746 32.522,-154.2211 -14.573,-69.8666 -73.928,-128.9773 -145.498,-144.9001 -17.751,-3.9492 -31.063,-4.8306 -51.28,-3.3955 -133.043,9.4436 -215.76,149.2287 -159.476,269.5035 29.569,63.1879 77.682,96.6447 157.804,109.735 l 15.284,2.497 29.22,66.9549 c 16.071,36.8252 28.678,67.4969 28.015,68.1594 -2.618,2.618 -42.059,6.9338 -61.24,6.7012 -11.172,-0.1356 -31.562,-2.0049 -45.312,-4.1542 z m 1415.625,2.3174 c -85.709,-11.6325 -172.016,-64.9925 -218.697,-135.2116 -56.006,-84.2449 -74.064,-198.1686 -46.515,-293.4506 35.031,-121.161 123.413,-203.557 245.257,-228.6459 43.185,-8.8922 115.832,-7.5527 154.33,2.8456 81.918,22.1258 153.224,80.2413 190.43,155.2035 21.953,44.2303 30.568,81.0717 31.051,132.7806 0.369,39.5781 -0.11,43.2329 -7.589,57.7839 -4.843,9.4223 -13.247,19.2332 -21.36,24.9372 l -13.377,9.4036 -218.325,1.5625 -218.324,1.5625 7.37,18.132 c 32.453,79.8337 103.594,125.2254 187.624,119.7148 44.444,-2.9145 75.846,-13.6236 113.026,-38.5453 25.188,-16.8833 37.019,-21.0984 59.34,-21.1403 16.788,-0.032 20.773,1.1824 31.25,9.52 14.968,11.9107 26.081,33.1206 26.041,49.6997 -0.135,54.9499 -85.927,115.2365 -187.447,131.717 -24.323,3.9486 -91.453,5.2025 -114.085,2.1308 z m 222.263,-403.26 c -3.402,-24.9485 -21.54,-58.64 -42.377,-78.7147 -71.238,-68.6327 -186.177,-65.4731 -256.935,7.0629 -18.046,18.5003 -40.22,56.815 -45.084,77.9018 l -1.982,8.5938 h 174.201 174.201 z M 397.40127,2563.9927 c -18.9226,-9.5022 -32.1441,-25.5424 -37.6443,-45.6696 -2.7334,-10.0028 -3.446,-102.5939 -2.7917,-362.7617 l 0.8784,-349.3309 75,171.2059 75,171.2058 0.8735,141.6153 0.8733,141.6153 113.1892,-1.1739 c 106.5917,-1.1055 114.7373,-1.5959 139.7516,-8.4131 103.7916,-28.2864 179.1458,-107.654 206.9734,-217.9968 5.8324,-23.1269 6.9125,-35.7557 6.7635,-79.0843 -0.1569,-45.6515 -1.134,-55.145 -8.5225,-82.8125 -29.4866,-110.417 -106.2205,-188.1727 -213.0535,-215.8906 -29.2183,-7.5807 -37.5417,-8.2336 -129.6094,-10.1677 l -98.3859,-2.0667 -28.7781,-65.625 c -15.8279,-36.0938 -28.859,-66.7839 -28.9578,-68.2003 -0.099,-1.4163 61.3437,-1.9769 136.539,-1.2456 126.02,1.2256 138.7974,1.8458 163.2813,7.9265 113.6041,28.2141 194.6555,78.695 262.60563,163.5578 65.067,81.2621 97.4182,173.6718 97.7478,279.2116 0.5901,189.0134 -124.3028,357.0997 -312.08003,420.0109 -56.9606,19.0835 -65.8646,19.8645 -242.0234,21.2271 l -160.9376,1.2448 z m 936.25213,3.6404 c -26.0714,-9.305 -43.4658,-29.0552 -49.2681,-55.9404 -2.4593,-11.3955 -3.2029,-92.8238 -2.5162,-275.5505 0.9728,-258.8698 0.9878,-259.3994 7.7198,-271.875 34.0927,-63.181 126.5844,-52.9857 141.7501,15.625 2.4142,10.9217 3.1605,94.1693 2.4793,276.5625 l -0.9745,260.9375 -6.9234,12.9455 c -17.8949,33.4598 -57.809,49.5935 -92.267,37.2954 z m 2551.8929,1.2443 c -15.544,-4.8238 -39.229,-22.2498 -48.739,-35.8602 -4.805,-6.875 -59.541,-125 -121.637,-262.5 -119.45,-264.5004 -119.954,-265.8228 -112.253,-294.4244 4.899,-18.193 21.02,-38.1246 37.739,-46.6588 29.683,-15.1519 71.4,-6.9874 90.797,17.7702 4.66,5.9472 46.676,102.9224 93.369,215.5005 46.694,112.5781 86.011,205.8007 87.371,207.1613 1.36,1.3606 41.619,-91.4519 89.464,-206.25 47.845,-114.7981 89.718,-212.4579 93.051,-217.0217 17.734,-24.2786 60.909,-32.0201 92.046,-16.5039 17.812,8.8757 33.614,29.0464 37.032,47.2708 5.43,28.9429 3.972,32.7322 -110.977,288.4685 -60.646,134.9219 -114.49,251.988 -119.653,260.147 -9.836,15.5399 -24.972,29.0538 -42.708,38.1309 -12.391,6.3416 -50.752,9.1609 -64.902,4.7698 z m 1215.893,-1.1933 c -12.018,-5.2346 -24.64,-20.0933 -30.045,-35.3688 -3.362,-9.4993 -4.175,-65.0755 -4.175,-285.2356 v -273.4375 l 7.812,-15.4654 c 18.413,-36.448 58.388,-47.367 85.681,-23.4032 15.078,13.2387 21.124,30.6688 22.957,66.1795 l 1.57,30.4358 12.865,-14.7406 c 21.852,-25.0381 40.06,-41.031 63.692,-55.9456 44.097,-27.8291 92.975,-41.8262 149.173,-42.7179 27.134,-0.4305 33.242,0.4785 46.375,6.9017 37.914,18.5442 49.557,67.3625 25.753,107.9807 -12.583,21.471 -27.819,29.6191 -62.22,33.2741 -60.528,6.4309 -91.465,17.1547 -125.712,43.5764 -30.828,23.7838 -56.344,63.5767 -69.042,107.6745 -4.625,16.0644 -5.65,39.1156 -7.151,160.9375 l -1.753,142.1875 -8.606,14.6395 c -15.012,25.5372 -38.499,37.0033 -75.381,36.8007 -12.245,-0.067 -26.552,-1.9902 -31.793,-4.2733 z M 1337.1634,1849.2055 c -39.3372,-14.7188 -61.3167,-47.116 -58.3801,-86.0507 3.3659,-44.6249 36.2176,-75.3129 80.623,-75.3129 33.0559,0 60.5722,16.3597 75.9827,45.1753 9.5041,17.7713 9.4269,54.1942 -0.1531,72.2951 -8.6554,16.3538 -23.1337,30.89 -38.6522,38.807 -15.8776,8.1001 -44.7583,10.5722 -59.4203,5.0862 z m 2924.9999,-78.1595 c -46.652,-17.3134 -72.14,-59.6461 -65.252,-108.3761 4.682,-33.1203 24.898,-59.8812 56.206,-74.4001 23.431,-10.8663 58.124,-11.023 80.147,-0.3618 19.172,9.2813 38.091,28.365 47.839,48.2567 10.564,21.5546 10.846,58.4664 0.625,81.5363 -8.25,18.6212 -27.446,38.3468 -47.322,48.6287 -17.047,8.8187 -54.585,11.2694 -72.243,4.7163 z m 68.036,-18.7437 c 12.489,-6.4929 30.876,-25.6308 37.594,-39.1299 7.811,-15.6966 7.786,-57.2111 -0.04,-71.7482 -15.858,-29.4409 -45.456,-47.7318 -76.428,-47.2318 -28.886,0.4663 -56.487,17.2666 -70.33,42.8084 -33.429,61.6833 16.546,132.8671 85.771,122.1724 7.998,-1.2357 18.545,-4.3276 23.437,-6.8709 z m 880.904,17.853 c -73.782,-13.318 -140.026,-48.5002 -195.362,-103.7562 -100.768,-100.6219 -135.082,-244.0352 -90.234,-377.132 17.324,-51.4141 50.026,-103.9689 88.29,-141.8934 19.352,-19.1793 20.098,-19.5889 23.64,-12.9699 3.315,6.1944 1.511,9.0843 -19.259,30.849 -63.572,66.6153 -96.272,148.5428 -96.272,241.2018 0,113.4875 52.104,215.8158 145.21,285.181 91.235,67.9714 210.956,86.774 320.326,50.3084 103.967,-34.6643 190.599,-122.2247 223.187,-225.5802 52.556,-166.6876 -18.955,-342.8407 -171.745,-423.055 -70.631,-37.0812 -165.742,-49.4475 -239.74,-31.171 -23.393,5.7777 -24.441,5.7918 -27.344,0.3679 -4.446,-8.3061 -4.19,-8.6184 10.263,-12.5281 127.177,-34.4052 266.328,5.5361 359.23,103.1114 169.552,178.0825 121.329,464.8897 -97.678,580.933 -68.331,36.2057 -156.341,49.8828 -232.512,36.1333 z m -560.38,-8.9188 c -18.563,-5.7967 -38.226,-22.8573 -49.22,-42.7061 l -9.284,-16.7632 v -295.3126 -295.3125 l 8.163,-15.625 c 9.926,-19.0003 35.322,-40.6075 53.51,-45.526 7.33,-1.9823 23.373,-2.9659 35.653,-2.1858 34.51,2.1923 58.973,19.0893 73.6,50.8368 l 7.199,15.625 v 292.1875 c 0,266.2792 -0.462,293.1574 -5.21,303.1251 -17.13,35.9644 -47.071,56.4247 -82.008,56.0409 -10.468,-0.115 -25.049,-2.0878 -32.403,-4.3841 z m 71.638,-22.0777 c 7.403,-5.2029 17.712,-16.3367 22.909,-24.7416 l 9.449,-15.2817 0.972,-283.0592 c 0.714,-207.9457 0,-287.5591 -2.692,-300.0167 -3.01,-13.9342 -6.569,-19.8642 -19.966,-33.2608 -13.59,-13.5906 -19.172,-16.8987 -33.545,-19.8825 -27.999,-5.8127 -54.27,2.1123 -73.517,22.178 -20.762,21.6443 -19.69,4.2986 -19.69,318.5537 0,207.1683 0.99,288.1966 3.627,296.999 4.791,15.9918 21.177,34.7216 37.717,43.1114 10.939,5.549 17.663,6.5967 37.31,5.8145 20.787,-0.8275 25.752,-2.2092 37.426,-10.4141 z m 499.545,-126.4229 c -77.283,-20.7018 -138.999,-84.1137 -154.909,-159.166 -5.64,-26.603 -5.555,-67.921 0.197,-95.5528 4.473,-21.4976 27.935,-73.4375 33.173,-73.4375 7.382,0 5.86,15.9125 -3.247,33.9542 -13.046,25.8447 -18.861,52.5831 -18.916,86.9858 -0.06,37.5014 4.03,56.142 19.368,88.2595 10.121,21.1945 17.599,31.3527 37.999,51.622 40.388,40.1275 82.747,57.9602 138.195,58.1785 58.014,0.2284 99.245,-16.8032 140.373,-57.9855 15.219,-15.2382 29.042,-32.6615 35.233,-44.4084 29.82,-56.5777 29.802,-133.1759 -0.04,-189.4119 -12.219,-23.0216 -43.54,-57.1787 -65.948,-71.9172 -35.821,-23.5608 -82.088,-34.5803 -127.117,-30.2752 -16.825,1.6087 -19.598,1.0932 -22.413,-4.1679 -5.38,-10.0523 2.572,-11.8243 47.432,-10.5697 35.77,1.0005 45.658,2.428 65.001,9.3851 61.839,22.2408 112.497,75.7013 132.4,139.7257 6.093,19.5973 7.269,30.094 7.179,64.0625 -0.1,37.1709 -0.918,42.9148 -9.642,67.5555 -22.357,63.1531 -70.603,111.4193 -132.954,133.0108 -32.474,11.2455 -87.811,13.1389 -121.359,4.1525 z m -576.998,-635.69575 c -23.315,-10.8557 -39.557,-26.9711 -49.49,-49.1059 -7.707,-17.1732 -8.477,-21.9175 -7.233,-44.5681 2.139,-38.9491 20.353,-66.6879 54.994,-83.7506 22.196,-10.9332 58.395,-10.3023 82.294,1.4342 62.69,30.7857 74.217,111.1729 22.695,158.2611 -19.893,18.1811 -38.643,25.2798 -66.662,25.2382 -15.056,-0.022 -24.824,-2.0264 -36.598,-7.5089 z m 77.513,-16.48 c 35.921,-19.5506 51.871,-62.0221 38.276,-101.9209 -6.35,-18.6383 -33.477,-44.2631 -52.193,-49.3025 -60.938,-16.4091 -116.648,33.7581 -105.245,94.7741 10.04,53.7175 71.066,82.6267 119.162,56.4493 z"
       id="path916"
       inkscape:connector-curvature="0" /></g></svg>