<?xml version="1.0" encoding="UTF-8" standalone="no"?>
<!-- Created with Inkscape (http://www.inkscape.org/) -->

<svg
   xmlns:dc="http://purl.org/dc/elements/1.1/"
   xmlns:cc="http://creativecommons.org/ns#"
   xmlns:rdf="http://www.w3.org/1999/02/22-rdf-syntax-ns#"
   xmlns:svg="http://www.w3.org/2000/svg"
   xmlns="http://www.w3.org/2000/svg"
   xmlns:sodipodi="http://sodipodi.sourceforge.net/DTD/sodipodi-0.dtd"
   xmlns:inkscape="http://www.inkscape.org/namespaces/inkscape"
   version="1.1"
   id="svg815"
   xml:space="preserve"
   width="1080"
   height="1080"
   viewBox="0 0 1080 1080"
   sodipodi:docname="logo_square.svg"
   inkscape:version="0.92.4 (5da689c313, 2019-01-14)"><metadata
     id="metadata821"><rdf:RDF><cc:Work
         rdf:about=""><dc:format>image/svg+xml</dc:format><dc:type
           rdf:resource="http://purl.org/dc/dcmitype/StillImage" /><dc:title></dc:title></cc:Work></rdf:RDF></metadata><defs
     id="defs819"><clipPath
       clipPathUnits="userSpaceOnUse"
       id="clipPath831"><path
         d="M 0,0 H 6000 V 3406.25 H 0 Z"
         id="path829"
         inkscape:connector-curvature="0"
         style="clip-rule:evenodd" /></clipPath><clipPath
       clipPathUnits="userSpaceOnUse"
       id="clipPath845"><path
         d="M 0,0 H 6000 V 3375 H 0 Z"
         id="path843"
         inkscape:connector-curvature="0"
         style="clip-rule:evenodd" /></clipPath><clipPath
       clipPathUnits="userSpaceOnUse"
       id="clipPath857"><path
         d="M 0,0 H 6000 V 3375 H 0 Z"
         id="path855"
         inkscape:connector-curvature="0"
         style="clip-rule:evenodd" /></clipPath><clipPath
       clipPathUnits="userSpaceOnUse"
       id="clipPath869"><path
         d="M 0,0 H 6000 V 3375 H 0 Z"
         id="path867"
         inkscape:connector-curvature="0"
         style="clip-rule:evenodd" /></clipPath></defs><sodipodi:namedview
     pagecolor="#ffffff"
     bordercolor="#666666"
     borderopacity="1"
     objecttolerance="10"
     gridtolerance="10"
     guidetolerance="10"
     inkscape:pageopacity="0"
     inkscape:pageshadow="2"
     inkscape:window-width="1920"
     inkscape:window-height="1001"
     id="namedview817"
     showgrid="false"
     inkscape:pagecheckerboard="true"
     inkscape:zoom="0.37407407"
     inkscape:cx="414.9866"
     inkscape:cy="648.59069"
     inkscape:window-x="2391"
     inkscape:window-y="-9"
     inkscape:window-maximized="1"
     inkscape:current-layer="g823" /><g
     id="g823"
     inkscape:groupmode="layer"
     inkscape:label="CHARTE GRAPHIQUE DISCOVER.IO"
     transform="matrix(0.31999998,0,0,0.31999998,0,5.3930666e-5)"><g
       id="g916"><path
         inkscape:connector-curvature="0"
         id="path876"
         d="m 996.161,2648.9012 c -42.30922,-21.2461 -71.87136,-57.1104 -84.16933,-102.113 -6.11164,-22.3656 -7.705,-229.391 -6.24195,-811.1035 l 1.96397,-781.07278 167.69341,382.80118 167.6934,382.801 1.9532,316.6394 1.9526,316.6393 253.0812,-2.6247 c 238.3296,-2.4718 256.5424,-3.5684 312.4721,-18.811 232.069,-63.2459 400.5542,-240.7048 462.7743,-487.4216 13.0407,-51.7097 15.4558,-79.9468 15.1227,-176.8255 -0.3509,-102.0728 -2.5357,-123.2994 -19.0557,-185.1614 -65.9293,-246.8826 -237.4996,-420.7377 -476.3688,-482.7124 -65.3294,-16.9497 -83.9399,-18.40956 -289.7952,-22.73401 l -219.9821,-4.62097 -64.3454,-146.73171 c -35.3899,-80.70256 -64.5262,-149.32293 -64.7471,-152.48988 -0.2213,-3.16672 137.159,-4.42017 305.2892,-2.78504 281.7696,2.74032 310.3387,4.12704 365.0825,17.72295 254.0089,63.08426 435.2326,175.95508 587.1631,365.70076 145.4841,181.6949 217.8186,388.3149 218.5555,624.2925 1.3193,422.6172 -277.9303,798.4435 -697.7833,939.1074 -127.3589,42.669 -147.2675,44.4152 -541.1432,47.4619 l -359.8423,2.7832 z"
         style="fill:#000000;stroke-width:6.98722601" /><g
         transform="matrix(0.55562419,0,0,0.55562419,-1032.6297,1064.1554)"
         id="g896"><path
           inkscape:connector-curvature="0"
           style="fill:#000000;stroke-width:1"
           d="m 1373.9902,505.60547 c -4.5936,0.0207 -9.2432,0.90202 -12.9922,2.64062 -10.0185,4.64605 -16.488,13.2101 -17.9863,23.8086 -2.2041,15.5936 5.9522,29.1394 20.8809,34.67969 5.6505,2.09699 17.6621,1.31221 23.1172,-1.50977 6.3603,-3.29021 12.5025,-9.60176 15.1425,-15.56055 3.2708,-7.38237 3.1813,-19.19432 -0.1992,-26.09179 -3.1193,-6.36535 -9.1735,-12.47139 -15.3086,-15.44141 -3.5236,-1.70579 -8.0607,-2.54613 -12.6543,-2.52539 z m -0.7656,4.53515 c 9.911,-0.15999 19.3825,5.69415 24.457,15.11524 2.5044,4.65187 2.5113,17.93607 0.012,22.95898 -2.1498,4.31972 -8.0329,10.44376 -12.0293,12.52149 -1.5655,0.81385 -4.9387,1.80379 -7.4981,2.19922 -22.152,3.4223 -38.1445,-19.35705 -27.4472,-39.09571 4.4297,-8.17337 13.2623,-13.55 22.5058,-13.69922 z"
           transform="matrix(3.1250002,0,0,3.1250002,0,-1.6853334e-4)"
           id="path866" /><path
           inkscape:connector-curvature="0"
           style="fill:#000000;stroke-width:3.12500024"
           d="m 5211.1033,1770.1553 c -73.782,-13.318 -140.026,-48.5002 -195.362,-103.7562 -100.768,-100.6219 -135.082,-244.0352 -90.234,-377.132 17.324,-51.4141 50.026,-103.9689 88.29,-141.8934 19.352,-19.1793 20.098,-19.5889 23.64,-12.9699 3.315,6.1944 1.511,9.0843 -19.259,30.849 -63.572,66.6153 -96.272,148.5428 -96.272,241.2018 0,113.4875 52.104,215.8158 145.21,285.181 91.235,67.9714 210.956,86.774 320.326,50.3084 103.967,-34.6643 190.599,-122.2247 223.187,-225.5802 52.556,-166.6876 -18.955,-342.8407 -171.745,-423.055 -70.631,-37.0812 -165.742,-49.4475 -239.74,-31.171 -23.393,5.7777 -24.441,5.7918 -27.344,0.3679 -4.446,-8.3061 -4.19,-8.6184 10.263,-12.5281 127.177,-34.4052 266.328,5.5361 359.23,103.1114 169.552,178.0825 121.329,464.8897 -97.678,580.933 -68.331,36.2057 -156.341,49.8828 -232.512,36.1333 z"
           id="path862" /><path
           inkscape:connector-curvature="0"
           style="fill:#000000;stroke-width:1"
           d="m 1497.543,335.21289 c -3.2117,0.0129 -6.5377,0.3094 -8.2969,0.78516 -5.8202,1.57392 -13.9467,8.48826 -17.1231,14.56836 l -2.6132,5 v 94.5 94.5 l 2.9707,5.36328 c 3.518,6.35161 9.8098,11.81107 15.75,13.66601 2.3532,0.73482 7.0193,1.36555 10.3691,1.40235 11.1798,0.12281 20.7626,-6.42304 26.2442,-17.93164 1.5193,-3.18967 1.666,-11.79067 1.666,-97 v -93.5 l -2.3028,-5 c -4.6806,-10.1592 -12.5095,-15.568 -23.5527,-16.26953 -0.9824,-0.0624 -2.0408,-0.0883 -3.1113,-0.084 z m 1.3222,4.33399 c 1.6299,0.043 3.2908,0.23717 4.9707,0.58593 4.5994,0.95482 6.3856,2.01429 10.7344,6.36328 4.2871,4.28692 5.4255,6.18364 6.3887,10.64258 0.8614,3.98643 1.0898,29.46324 0.8613,96.00586 l -0.3105,90.57813 -3.0235,4.89062 c -1.663,2.68957 -4.9611,6.25304 -7.3301,7.91797 -3.7356,2.62557 -5.3247,3.06723 -11.9765,3.33203 -6.2871,0.25031 -8.439,-0.0856 -11.9395,-1.86133 -5.2928,-2.68473 -10.5372,-8.67754 -12.0703,-13.79492 -0.8438,-2.81677 -1.1601,-28.74521 -1.1601,-95.03906 0,-100.56163 -0.3431,-95.01133 6.3007,-101.9375 5.0043,-5.21708 11.4919,-7.87007 18.5547,-7.68359 z"
           transform="matrix(3.1250002,0,0,3.1250002,0,-1.6853334e-4)"
           id="path860" /><path
           inkscape:connector-curvature="0"
           style="fill:#000000;stroke-width:3.12500024"
           d="m 5221.9063,1612.7359 c -77.283,-20.7018 -138.999,-84.1137 -154.909,-159.166 -5.64,-26.603 -5.555,-67.921 0.197,-95.5528 4.473,-21.4976 27.935,-73.4375 33.173,-73.4375 7.382,0 5.86,15.9125 -3.247,33.9542 -13.046,25.8447 -18.861,52.5831 -18.916,86.9858 -0.06,37.5014 4.03,56.142 19.368,88.2595 10.121,21.1945 17.599,31.3527 37.999,51.622 40.388,40.1275 82.747,57.9602 138.195,58.1785 58.014,0.2284 99.245,-16.8032 140.373,-57.9855 15.219,-15.2382 29.042,-32.6615 35.233,-44.4084 29.82,-56.5777 29.802,-133.1759 -0.04,-189.4119 -12.219,-23.0216 -43.54,-57.1787 -65.948,-71.9172 -35.821,-23.5608 -82.088,-34.5803 -127.117,-30.2752 -16.825,1.6087 -19.598,1.0932 -22.413,-4.1679 -5.38,-10.0523 2.572,-11.8243 47.432,-10.5697 35.77,1.0005 45.658,2.428 65.001,9.3851 61.839,22.2408 112.497,75.7013 132.4,139.7257 6.093,19.5973 7.269,30.094 7.179,64.0625 -0.1,37.1709 -0.918,42.9148 -9.642,67.5555 -22.357,63.1531 -70.603,111.4193 -132.954,133.0108 -32.474,11.2455 -87.811,13.1389 -121.359,4.1525 z"
           id="path856" /><path
           inkscape:connector-curvature="0"
           style="fill:#000000;stroke-width:1"
           d="m 1498.7793,253.38672 c -4.7397,-0.0826 -9.4115,0.74092 -12.9629,2.49023 -11.0851,5.46007 -16.9132,14.33707 -17.5976,26.80078 -0.3981,7.2482 -0.1518,8.7663 2.3144,14.26172 3.1786,7.08314 8.3771,12.23907 15.8379,15.71289 3.7677,1.7544 6.893,2.39726 11.7109,2.4043 8.9661,0.0133 14.9663,-2.25822 21.3321,-8.07617 16.487,-15.06822 12.7971,-40.79311 -7.2637,-50.64453 -3.8238,-1.87784 -8.6314,-2.86662 -13.3711,-2.94922 z m 0.7461,4.5957 c 2.3466,0.0254 4.7578,0.3495 7.1953,1.00586 5.9891,1.61261 14.6711,9.81114 16.7031,15.77539 4.3504,12.76762 -0.7553,26.35904 -12.25,32.61524 -15.3907,8.37676 -34.918,-0.8729 -38.1308,-18.0625 -3.1929,-17.08448 10.0565,-31.512 26.4824,-31.33399 z"
           transform="matrix(3.1250002,0,0,3.1250002,0,-1.6853334e-4)"
           id="path853" /></g></g></g></svg>